<?xml version="1.0" encoding="utf-8"?>
<!-- Generator: Adobe Illustrator 25.2.3, SVG Export Plug-In . SVG Version: 6.00 Build 0)  -->
<svg version="1.1" xmlns="http://www.w3.org/2000/svg" xmlns:xlink="http://www.w3.org/1999/xlink" x="0px" y="0px"
	 viewBox="0 0 216 216" style="enable-background:new 0 0 216 216;" xml:space="preserve">
<style type="text/css">
	.st0{fill:url(#SVGID_1_);}
	.st1{fill:url(#SVGID_2_);}
	.st2{fill:#A87957;}
	.st3{fill:#8A573E;}
	.st4{fill:none;stroke:#996E52;stroke-width:0.25;stroke-miterlimit:10;}
	.st5{fill:#F0F1F1;stroke:#000000;stroke-width:0.25;stroke-miterlimit:10;}
	.st6{fill:#D1D3D3;stroke:#000000;stroke-width:0.25;stroke-miterlimit:10;}
	.st7{fill:#DBDAD9;stroke:#000000;stroke-width:0.25;stroke-miterlimit:10;}
	.st8{stroke:#000000;stroke-width:0.25;stroke-miterlimit:10;}
	.st9{fill:#EBEBEC;stroke:#000000;stroke-width:0.25;stroke-miterlimit:10;}
</style>
<g id="Calque_4">
	<g>
		<radialGradient id="SVGID_1_" cx="111.855" cy="105.3306" r="96.3296" gradientUnits="userSpaceOnUse">
			<stop  offset="0" style="stop-color:#FFFFFF"/>
			<stop  offset="9.256124e-03" style="stop-color:#F8F8F8"/>
			<stop  offset="0.0872" style="stop-color:#C5C5C5"/>
			<stop  offset="0.1705" style="stop-color:#969696"/>
			<stop  offset="0.2572" style="stop-color:#6E6E6E"/>
			<stop  offset="0.3482" style="stop-color:#4C4C4C"/>
			<stop  offset="0.4447" style="stop-color:#303030"/>
			<stop  offset="0.5485" style="stop-color:#1B1B1B"/>
			<stop  offset="0.6635" style="stop-color:#0C0C0C"/>
			<stop  offset="0.798" style="stop-color:#030303"/>
			<stop  offset="1" style="stop-color:#000000"/>
		</radialGradient>
		<circle class="st0" cx="111.86" cy="105.33" r="96.33"/>
		<g>
			<path d="M111.86,9.5c52.84,0,95.83,42.99,95.83,95.83s-42.99,95.83-95.83,95.83s-95.83-42.99-95.83-95.83S59.01,9.5,111.86,9.5
				 M111.86,8.5c-53.48,0-96.83,43.35-96.83,96.83s43.35,96.83,96.83,96.83s96.83-43.35,96.83-96.83S165.33,8.5,111.86,8.5
				L111.86,8.5z"/>
		</g>
	</g>
</g>
<g id="Calque_1">
	<g>
		<path class="st2" d="M110.31,58.66c0,0-19.95-2.4-22.36,7.8l-2.17,15.21l0.95,10.71c0,0-2.24-2.24-3.63-0.65
			c0,0-2.38,2.58,1.39,14.2c0,0,0,4.27,3.38,3.77c0,0,1.38,7.96,2.09,9.5c0,0,8.24,12.6,25.68,11.18c0,0,16.01-1.11,19.18-7.93
			c0,0,4.6-10.3,4.12-17.28l0.03-0.98c0,0,3.38-0.76,2-4.37c0,0,0.81-5.24-0.74-7.66c0,0,1.56-6.83-0.86-6.66
			c0,0-1.05-0.39-2.12,0.47c0,0,0.28-26.23-11.81-26.72L110.31,58.66z"/>
		<path d="M107.61,80.37c0,0-9.54-1.46-11.55-0.54c0,0-3.52,1.52-4.88,4.5c0,0,4.88-2.42,5.64-2.4h3.74l7.05,0.29V80.37z"/>
		<path d="M115.96,78.9c0,0,7.59-1.9,10.63-2.06c0,0,3.25,0.05,5.96,1.25l-8.57,0.81l-7.65,1.95L115.96,78.9z"/>
		<path d="M137.22,83.9l-1.91-5.05c-0.44-0.45-3.87-0.38-3.87-0.38c-9.02-0.98-17.45,3.23-17.45,3.23
			c-2.89,0.98-4.51,0.64-4.51,0.64c-6.52-1.13-12.61,0.33-12.61,0.33c-4.81,1.14-8.17,2.75-8.17,2.75
			c-0.65,0.23-0.46,1.18-0.46,1.18l-1.85,1.88l0.22,2.5l2.92-1.43l2.4,4.91c0.83,2.02,1.96,2.39,1.96,2.39
			c2.25,1.52,12.2-0.69,12.2-0.69c2.94-0.69,4.02-6.76,4.02-6.76c0.2-3.43,2.06-3.36,2.06-3.36c1.86-0.33,3.53,3.66,3.53,3.66
			c2.74,4.7,5.34,4.02,5.34,4.02c4.51-0.05,10.14-1.67,10.14-1.67c3.38-1.18,3.33-8.65,3.33-8.65l2.74,2.58L137.22,83.9z
			 M107.61,93.27c-2.01,3.04-12.1,2.79-12.1,2.79c-2.74-0.34-3.77-7.94-3.77-7.94c-0.54-2.74,1.81-2.99,1.81-2.99
			c8.48-2.99,14.7-1.13,14.7-1.13C110.8,85.52,107.61,93.27,107.61,93.27z M131.87,89.54c-1.37,3.04-11.08,2.84-11.08,2.84
			c-3.48-0.05-5.73-7.01-5.73-7.01c-0.98-2.74,2.5-3.87,2.5-3.87c5.34-2.16,13.48-1.62,13.48-1.62
			C134.08,80.38,131.87,89.54,131.87,89.54z"/>
		<path d="M105.41,61.41c-5.68,0.23-7.79,0.53-10.18,1.41c-1.56,0.57-2.78,1.22-3.57,1.69c-0.4,0.52-0.95,1.3-1.41,2.35
			c-0.65,1.47-0.81,2.71-1.07,4.88c-0.11,0.96-0.24,2.24-0.29,3.77c-0.08,0.7-0.21,1.49-0.44,2.33c-0.45,1.7-1.11,3.07-1.72,4.09
			c0,0,0.97,8.23,0,10.45c0,0-4.26-20.51-2.7-29.36c0.3-2.4,1.14-6.37,3.78-10.42c4.81-7.38,12.16-9.8,14.4-10.44
			c2.61-0.45,5.77-0.79,9.34-0.76c4.32,0.04,8.04,0.6,11,1.27c1.5,0.42,4.71,1.52,7.6,4.47c3.33,3.4,4.26,7.24,4.54,8.75
			c0.46,2.4,0.87,4.89,1.23,7.47c1.12,8.16,1.46,15.76,1.33,22.63c-0.18-1.12-0.49-3.06-0.93-5.75c-0.46-2.77-0.62-3.67-1.36-4.71
			c-0.46-0.65-0.86-0.95-1.28-1.86c-0.43-0.91-0.49-1.63-0.64-2.93c-0.29-2.47-0.44-3.71-0.57-4.05c-0.68-1.7-2.17-2.58-3.64-3.45
			c-0.44-0.26-2.31-1.33-5.07-1.79c-0.95-0.16-3.51-0.18-8.59-0.22C114.23,61.23,110.47,61.21,105.41,61.41z"/>
		<path d="M87.87,109.7c-0.86-5.96-0.92-10.9-0.86-10.9c0.02,0,0.07,0.68,0.29,2.02c0.15,0.89,0.29,1.59,0.32,1.73
			c0.41,1.82,3.22,3.27,4.62,4.1c1.87,1.11,4.38,2.48,7.48,3.86c0.09-0.56,0.23-1.06,0.39-1.52c1.5-4.24,5.8-6.19,7.49-6.84
			c0,0,4.14-0.9,5.6-0.35c0,0,2.43-1.25,5.21-0.9c0,0,10.01,0,10.08,6.01v2.33l9.8-10.42v-5.14l0.68,10.53c0,0,0.99,6.89-4.16,18.26
			c0,0-1.67,6.73-19.18,7.93c0,0-15.72,2.73-25.68-11.18C89.96,119.2,89.04,117.79,87.87,109.7z"/>
		<path class="st3" d="M111.09,103.75c0,0,2.11,0.6,5.27-0.75c0,0,6.32-0.38,8.43,4.29c0,0,1.39,5.19-8.83,5.87
			c0,0-9.31,1.36-11.72-2.03C104.24,111.12,105.82,104.5,111.09,103.75z"/>
		<path class="st4" d="M105.71,97.06c0,0-1.23,3.57,1.55,3.7c0,0,2.07-1.83,3.36-1.85c0,0,1.34,0.89,3.13,0.71c0,0,1.74,0,2.83-1.28
			c0.26-0.1,0.75-0.25,1.37-0.21c0.56,0.04,0.99,0.22,1.23,0.34c0.67,0.26,1.43,0.06,1.87-0.46c0.5-0.6,0.49-1.51-0.04-2.14
			c0,0-0.55-1.05-1.14-1.14"/>
	</g>
</g>
<g id="Calque_3">
	<g>
		<path class="st5" d="M159.78,139.25l13.29-14.02c2.16-1.93,1.5-3.38,1.5-3.38c-3.09-5.14-12.63-12.49-12.63-12.49
			c-2.3-1.86-4.2,0.57-4.2,0.57l-14.55,15.3c-0.79,1.26,1.37,6.8,1.37,6.8c1.44,3.01,0.07,4.64,0.07,4.64l-14.07,15l2.65,2.51
			l14.03-14.77c2.1-2.21,8.13,0.5,8.13,0.5C158.5,141.05,159.78,139.25,159.78,139.25z M150.1,125.53c0,0-0.79,0.29-1.29-0.06
			c0,0-0.48-1.01-0.16-1.25L159.32,113c0,0,0.56-0.31,1.2,0.21c0,0,0.6,0.59,0.22,1.14L150.1,125.53z M153.31,128.57
			c0,0-0.79,0.29-1.29-0.06c0,0-0.48-1.01-0.16-1.25l10.66-11.22c0,0,0.56-0.31,1.2,0.21c0,0,0.6,0.59,0.22,1.14L153.31,128.57z
			 M156.46,131.57c0,0-0.79,0.29-1.29-0.06c0,0-0.48-1.01-0.16-1.25l10.66-11.22c0,0,0.56-0.31,1.2,0.21c0,0,0.6,0.59,0.22,1.14
			L156.46,131.57z M159.65,134.6c0,0-0.79,0.29-1.29-0.06c0,0-0.48-1.01-0.16-1.25l10.66-11.22c0,0,0.56-0.31,1.2,0.21
			c0,0,0.6,0.59,0.22,1.14L159.65,134.6z"/>
		<path class="st6" d="M131.86,152.89l-1.29-1.23c0,0-0.73-0.88-1.42-0.09l-20.53,21.61c0,0-1.04,0.85-0.33,1.58l2.94,2.79
			c0,0,0.65,0.44,1.35-0.31l20.45-21.52c0,0,0.95-0.84,0.19-1.55L131.86,152.89z"/>
		<path class="st5" d="M108.14,174.63c0,0-2.8,2.19-1.53,3.69c0,0,1.49,2.23,3.21,0.93l1.59-1.61c0,0-0.15-0.05-0.66-0.53
			c-0.3,0.39-0.57,0.68-0.77,0.88c-0.49,0.49-0.75,0.74-1.16,0.83c-0.36,0.08-0.69-0.01-0.87-0.08c-0.06-0.03-0.74-0.34-0.89-1.12
			c-0.15-0.78,0.38-1.32,0.42-1.37c0.36-0.4,0.73-0.81,1.09-1.21L108.14,174.63z"/>
	</g>
	<g>
		<path class="st7" d="M60.62,118.04c0,0-0.74,17.92,32.16,44.35c0,0,5.93-5.08,9.04-2.1l4.22-4.52
			C106.04,155.77,70.49,123.54,60.62,118.04z"/>
		<path class="st8" d="M106.04,155.77l-4.22,4.52c0,0,8.43,8.33,11.16,11.77c0,0,4.46,5.67,5.64,6.49c0,0,6.43-3.97,7.57-4.42
			C126.19,174.12,113.93,161.08,106.04,155.77z"/>
		<path class="st9" d="M118.62,178.54c0,0,5.91-3.66,7.57-4.42c0,0,2.87,2.31-1.49,4.07C124.7,178.2,120.05,180.81,118.62,178.54z"
			/>
		<circle class="st9" cx="107.93" cy="161.28" r="0.86"/>
		<circle class="st9" cx="113.52" cy="166.82" r="0.86"/>
		<circle class="st9" cx="119.21" cy="172.74" r="0.86"/>
	</g>
</g>
<g id="Calque_5">
</g>
</svg>
